<?xml version="1.0" encoding="utf-8" ?>
<svg baseProfile="full" height="100%" version="1.1" width="100%" xmlns="http://www.w3.org/2000/svg" xmlns:ev="http://www.w3.org/2001/xml-events" xmlns:xlink="http://www.w3.org/1999/xlink"><defs /><style type="text/css"><![CDATA[.board { fill: white } .hex-field { fill: white; stroke: black } .hex-field-0 { fill: black }]]></style><style type="text/css"><![CDATA[.board {fill: navy} .hex-field {fill: blue; stroke: white; }]]></style><rect class="board" height="534.6410161513775" width="573.0127018922192" x="0" y="0" /><polygon class="hex-field hex-field-1" points="93.30127018922192,317.32050807568874 136.60254037844388,292.32050807568874 136.60254037844388,242.32050807568876 93.30127018922192,217.32050807568876 50.000000000000014,242.32050807568874 50.0,292.32050807568874" /><polygon class="hex-field hex-field-1" points="141.60254037844388,400.98076211353316 184.9038105676658,375.98076211353316 184.9038105676658,325.98076211353316 141.60254037844388,300.98076211353316 98.30127018922195,325.98076211353316 98.30127018922195,375.98076211353316" /><polygon class="hex-field hex-field-1" points="189.90381056766583,484.6410161513775 233.20508075688775,459.6410161513775 233.20508075688775,409.6410161513775 189.90381056766583,384.6410161513775 146.6025403784439,409.6410161513775 146.6025403784439,459.6410161513775" /><polygon class="hex-field hex-field-1" points="141.60254037844385,233.66025403784437 184.90381056766577,208.6602540378444 184.9038105676658,158.6602540378444 141.60254037844385,133.66025403784437 98.30127018922192,158.66025403784437 98.30127018922192,208.6602540378444" /><polygon class="hex-field hex-field-1" points="189.90381056766577,317.32050807568874 233.2050807568877,292.32050807568874 233.2050807568877,242.32050807568876 189.90381056766577,217.32050807568876 146.60254037844385,242.32050807568874 146.60254037844385,292.32050807568874" /><polygon class="hex-field hex-field-1" points="238.20508075688775,400.98076211353316 281.5063509461097,375.98076211353316 281.5063509461097,325.98076211353316 238.20508075688775,300.98076211353316 194.90381056766583,325.98076211353316 194.90381056766583,375.98076211353316" /><polygon class="hex-field hex-field-1" points="286.5063509461097,484.6410161513775 329.80762113533166,459.6410161513775 329.80762113533166,409.6410161513775 286.5063509461097,384.6410161513775 243.20508075688778,409.6410161513775 243.20508075688778,459.6410161513775" /><polygon class="hex-field hex-field-1" points="189.90381056766577,150.0 233.2050807568877,125.0 233.2050807568877,75.00000000000001 189.90381056766577,50.0 146.60254037844385,74.99999999999997 146.60254037844385,125.0" /><polygon class="hex-field hex-field-1" points="238.2050807568877,233.66025403784437 281.50635094610965,208.6602540378444 281.50635094610965,158.6602540378444 238.2050807568877,133.66025403784437 194.90381056766577,158.66025403784437 194.90381056766577,208.6602540378444" /><polygon class="hex-field hex-field-1" points="286.50635094610965,317.32050807568874 329.8076211353316,292.32050807568874 329.8076211353316,242.32050807568876 286.50635094610965,217.32050807568876 243.20508075688772,242.32050807568874 243.20508075688772,292.32050807568874" /><polygon class="hex-field hex-field-1" points="334.8076211353316,400.98076211353316 378.10889132455355,375.98076211353316 378.10889132455355,325.98076211353316 334.8076211353316,300.98076211353316 291.5063509461097,325.98076211353316 291.50635094610965,375.98076211353316" /><polygon class="hex-field hex-field-1" points="383.1088913245535,484.6410161513775 426.41016151377545,459.6410161513775 426.41016151377545,409.6410161513775 383.1088913245535,384.6410161513775 339.8076211353316,409.6410161513775 339.80762113533154,459.6410161513775" /><polygon class="hex-field hex-field-1" points="286.50635094610965,150.0 329.8076211353316,125.0 329.8076211353316,75.00000000000001 286.50635094610965,50.0 243.20508075688772,74.99999999999997 243.20508075688772,125.0" /><polygon class="hex-field hex-field-1" points="334.80762113533154,233.66025403784437 378.1088913245535,208.6602540378444 378.1088913245535,158.6602540378444 334.80762113533154,133.66025403784437 291.50635094610965,158.66025403784437 291.5063509461096,208.6602540378444" /><polygon class="hex-field hex-field-1" points="383.1088913245535,317.32050807568874 426.41016151377545,292.32050807568874 426.41016151377545,242.32050807568876 383.1088913245535,217.32050807568876 339.8076211353316,242.32050807568874 339.80762113533154,292.32050807568874" /><polygon class="hex-field hex-field-1" points="431.41016151377545,400.98076211353316 474.7114317029974,375.98076211353316 474.7114317029974,325.98076211353316 431.41016151377545,300.98076211353316 388.10889132455355,325.98076211353316 388.1088913245535,375.98076211353316" /><polygon class="hex-field hex-field-1" points="383.1088913245535,150.0 426.41016151377545,125.0 426.41016151377545,75.00000000000001 383.1088913245535,50.0 339.8076211353316,74.99999999999997 339.80762113533154,125.0" /><polygon class="hex-field hex-field-1" points="431.41016151377545,233.66025403784437 474.7114317029974,208.6602540378444 474.7114317029974,158.6602540378444 431.41016151377545,133.66025403784437 388.10889132455355,158.66025403784437 388.1088913245535,208.6602540378444" /><polygon class="hex-field hex-field-1" points="479.71143170299734,317.32050807568874 523.0127018922192,292.32050807568874 523.0127018922192,242.32050807568876 479.71143170299734,217.32050807568876 436.41016151377545,242.32050807568874 436.4101615137754,292.32050807568874" /></svg>