<?xml version="1.0" encoding="utf-8" ?>
<svg baseProfile="full" height="100%" version="1.1" width="100%" xmlns="http://www.w3.org/2000/svg" xmlns:ev="http://www.w3.org/2001/xml-events" xmlns:xlink="http://www.w3.org/1999/xlink"><defs /><style type="text/css"><![CDATA[.board { fill: white } .hex-field { fill: white; stroke: black } .hex-field-0 { fill: black }]]></style><style type="text/css"><![CDATA[.board {fill: dodgerblue} .hex-field-1 {fill: lime; } .hex-field-2 {fill: beige} .hex-field-9 {fill: red} .hex-field-8 {fill : #0f0f0f} .hex-field-7 {fill: gray} .hex-field-6 {fill: wheat} .hex-field-5 {fill: darkgreen}]]></style><rect class="board" height="434.99999999999994" width="501.6729559300636" x="0" y="0" /><polygon class="hex-field hex-field-1" points="55.98076211353322,360.0 81.96152422706638,345.0 81.96152422706638,315.0 55.98076211353322,300.0 30.000000000000057,315.0 30.000000000000057,345.0" /><polygon class="hex-field hex-field-1" points="81.96152422706638,404.99999999999994 107.94228634059954,389.99999999999994 107.94228634059954,359.99999999999994 81.96152422706638,344.99999999999994 55.98076211353322,359.99999999999994 55.98076211353322,389.99999999999994" /><polygon class="hex-field hex-field-7" points="55.98076211353319,270.0 81.96152422706635,254.99999999999997 81.96152422706635,224.99999999999997 55.98076211353319,209.99999999999997 30.00000000000003,224.99999999999994 30.00000000000003,254.99999999999997" /><polygon class="hex-field hex-field-1" points="81.96152422706635,314.99999999999994 107.94228634059951,299.99999999999994 107.94228634059951,269.99999999999994 81.96152422706635,254.99999999999994 55.98076211353319,269.99999999999994 55.98076211353319,299.99999999999994" /><polygon class="hex-field hex-field-1" points="107.94228634059954,360.0 133.9230484541327,345.0 133.9230484541327,315.0 107.94228634059954,300.0 81.96152422706638,315.0 81.96152422706638,345.0" /><polygon class="hex-field hex-field-1" points="133.92304845413267,404.99999999999994 159.90381056766583,389.99999999999994 159.90381056766583,359.99999999999994 133.92304845413267,344.99999999999994 107.94228634059951,359.99999999999994 107.94228634059951,389.99999999999994" /><polygon class="hex-field hex-field-7" points="55.98076211353316,180.0 81.96152422706632,165.0 81.96152422706632,135.0 55.98076211353316,119.99999999999999 30.0,134.99999999999997 30.0,165.0" /><polygon class="hex-field hex-field-7" points="81.96152422706635,225.0 107.94228634059951,210.0 107.94228634059951,180.0 81.96152422706635,165.0 55.98076211353319,180.0 55.98076211353319,210.0" /><polygon class="hex-field hex-field-7" points="107.94228634059948,270.0 133.92304845413264,254.99999999999997 133.92304845413264,224.99999999999997 107.94228634059948,209.99999999999997 81.96152422706632,224.99999999999994 81.96152422706632,254.99999999999997" /><polygon class="hex-field hex-field-1" points="133.92304845413264,314.99999999999994 159.90381056766577,299.99999999999994 159.90381056766583,269.99999999999994 133.92304845413264,254.99999999999994 107.94228634059948,269.99999999999994 107.94228634059948,299.99999999999994" /><polygon class="hex-field hex-field-1" points="159.90381056766583,360.0 185.884572681199,345.0 185.884572681199,315.0 159.90381056766583,300.0 133.92304845413267,315.0 133.92304845413267,345.0" /><polygon class="hex-field hex-field-1" points="185.884572681199,404.99999999999994 211.86533479473215,389.99999999999994 211.86533479473215,359.99999999999994 185.884572681199,344.99999999999994 159.90381056766583,359.99999999999994 159.90381056766583,389.99999999999994" /><polygon class="hex-field hex-field-7" points="55.98076211353316,90.0 81.96152422706632,75.0 81.96152422706632,45.00000000000001 55.98076211353316,30.0 30.0,44.999999999999986 30.0,75.0" /><polygon class="hex-field hex-field-7" points="81.96152422706632,135.0 107.94228634059948,120.0 107.94228634059948,90.0 81.96152422706632,75.0 55.98076211353316,89.99999999999997 55.98076211353316,120.0" /><polygon class="hex-field hex-field-8" points="107.94228634059948,180.0 133.92304845413264,165.0 133.92304845413264,135.0 107.94228634059948,119.99999999999999 81.96152422706632,134.99999999999997 81.96152422706632,165.0" /><polygon class="hex-field hex-field-8" points="133.92304845413264,225.0 159.90381056766577,210.0 159.90381056766583,180.0 133.92304845413264,165.0 107.94228634059948,180.0 107.94228634059948,210.0" /><polygon class="hex-field hex-field-7" points="159.90381056766577,270.0 185.88457268119893,254.99999999999997 185.88457268119893,224.99999999999997 159.90381056766577,209.99999999999997 133.9230484541326,224.99999999999994 133.9230484541326,254.99999999999997" /><polygon class="hex-field hex-field-5" points="185.88457268119893,314.99999999999994 211.8653347947321,299.99999999999994 211.8653347947321,269.99999999999994 185.88457268119893,254.99999999999994 159.90381056766577,269.99999999999994 159.90381056766577,299.99999999999994" /><polygon class="hex-field hex-field-5" points="211.86533479473215,360.0 237.8460969082653,345.0 237.8460969082653,315.0 211.86533479473215,300.0 185.884572681199,315.0 185.884572681199,345.0" /><polygon class="hex-field hex-field-1" points="237.8460969082653,404.99999999999994 263.82685902179844,389.99999999999994 263.82685902179844,359.99999999999994 237.8460969082653,344.99999999999994 211.86533479473215,359.99999999999994 211.86533479473215,389.99999999999994" /><polygon class="hex-field hex-field-7" points="107.94228634059948,90.0 133.92304845413264,75.0 133.92304845413264,45.00000000000001 107.94228634059948,30.0 81.96152422706632,44.999999999999986 81.96152422706632,75.0" /><polygon class="hex-field hex-field-8" points="133.92304845413264,135.0 159.90381056766577,120.0 159.90381056766583,90.0 133.92304845413264,75.0 107.94228634059948,89.99999999999997 107.94228634059948,120.0" /><polygon class="hex-field hex-field-9" points="159.90381056766577,180.0 185.88457268119893,165.0 185.88457268119893,135.0 159.90381056766577,119.99999999999999 133.9230484541326,134.99999999999997 133.9230484541326,165.0" /><polygon class="hex-field hex-field-8" points="185.88457268119893,225.0 211.8653347947321,210.0 211.8653347947321,180.0 185.88457268119893,165.0 159.90381056766577,180.0 159.90381056766577,210.0" /><polygon class="hex-field hex-field-7" points="211.8653347947321,270.0 237.84609690826525,254.99999999999997 237.84609690826525,224.99999999999997 211.8653347947321,209.99999999999997 185.88457268119893,224.99999999999994 185.88457268119893,254.99999999999997" /><polygon class="hex-field hex-field-5" points="237.84609690826525,314.99999999999994 263.82685902179844,299.99999999999994 263.82685902179844,269.99999999999994 237.84609690826525,254.99999999999994 211.8653347947321,269.99999999999994 211.8653347947321,299.99999999999994" /><polygon class="hex-field hex-field-5" points="263.82685902179844,360.0 289.8076211353316,345.0 289.8076211353316,315.0 263.82685902179844,300.0 237.8460969082653,315.0 237.8460969082653,345.0" /><polygon class="hex-field hex-field-1" points="289.8076211353316,404.99999999999994 315.78838324886476,389.99999999999994 315.78838324886476,359.99999999999994 289.8076211353316,344.99999999999994 263.82685902179844,359.99999999999994 263.82685902179844,389.99999999999994" /><polygon class="hex-field hex-field-7" points="159.90381056766577,90.0 185.88457268119893,75.0 185.88457268119893,45.00000000000001 159.90381056766577,30.0 133.9230484541326,44.999999999999986 133.9230484541326,75.0" /><polygon class="hex-field hex-field-8" points="185.88457268119893,135.0 211.8653347947321,120.0 211.8653347947321,90.0 185.88457268119893,75.0 159.90381056766577,89.99999999999997 159.90381056766577,120.0" /><polygon class="hex-field hex-field-8" points="211.8653347947321,180.0 237.84609690826525,165.0 237.84609690826525,135.0 211.8653347947321,119.99999999999999 185.88457268119893,134.99999999999997 185.88457268119893,165.0" /><polygon class="hex-field hex-field-7" points="237.84609690826525,225.0 263.82685902179844,210.0 263.82685902179844,180.0 237.84609690826525,165.0 211.8653347947321,180.0 211.8653347947321,210.0" /><polygon class="hex-field hex-field-5" points="263.82685902179844,270.0 289.8076211353316,254.99999999999997 289.8076211353316,224.99999999999997 263.82685902179844,209.99999999999997 237.84609690826525,224.99999999999994 237.84609690826525,254.99999999999997" /><polygon class="hex-field hex-field-5" points="289.8076211353316,314.99999999999994 315.78838324886476,299.99999999999994 315.78838324886476,269.99999999999994 289.8076211353316,254.99999999999994 263.82685902179844,269.99999999999994 263.82685902179844,299.99999999999994" /><polygon class="hex-field hex-field-1" points="315.78838324886476,360.0 341.7691453623979,345.0 341.7691453623979,315.0 315.78838324886476,300.0 289.8076211353316,315.0 289.8076211353316,345.0" /><polygon class="hex-field hex-field-1" points="341.7691453623979,404.99999999999994 367.7499074759311,389.99999999999994 367.7499074759311,359.99999999999994 341.7691453623979,344.99999999999994 315.78838324886476,359.99999999999994 315.78838324886476,389.99999999999994" /><polygon class="hex-field hex-field-7" points="211.8653347947321,90.0 237.84609690826525,75.0 237.84609690826525,45.00000000000001 211.8653347947321,30.0 185.88457268119893,44.999999999999986 185.88457268119893,75.0" /><polygon class="hex-field hex-field-7" points="237.84609690826525,135.0 263.82685902179844,120.0 263.82685902179844,90.0 237.84609690826525,75.0 211.8653347947321,89.99999999999997 211.8653347947321,120.0" /><polygon class="hex-field hex-field-7" points="263.82685902179844,180.0 289.8076211353316,165.0 289.8076211353316,135.0 263.82685902179844,119.99999999999999 237.84609690826525,134.99999999999997 237.84609690826525,165.0" /><polygon class="hex-field hex-field-5" points="289.8076211353316,225.0 315.78838324886476,210.0 315.78838324886476,180.0 289.8076211353316,165.0 263.82685902179844,180.0 263.82685902179844,210.0" /><polygon class="hex-field hex-field-5" points="315.78838324886476,270.0 341.7691453623979,254.99999999999997 341.7691453623979,224.99999999999997 315.78838324886476,209.99999999999997 289.8076211353316,224.99999999999994 289.8076211353316,254.99999999999997" /><polygon class="hex-field hex-field-1" points="341.7691453623979,314.99999999999994 367.7499074759311,299.99999999999994 367.7499074759311,269.99999999999994 341.7691453623979,254.99999999999994 315.78838324886476,269.99999999999994 315.78838324886476,299.99999999999994" /><polygon class="hex-field hex-field-1" points="367.7499074759311,360.0 393.73066958946424,345.0 393.73066958946424,315.0 367.7499074759311,300.0 341.7691453623979,315.0 341.7691453623979,345.0" /><polygon class="hex-field hex-field-1" points="393.73066958946424,404.99999999999994 419.7114317029973,389.99999999999994 419.7114317029974,359.99999999999994 393.73066958946424,344.99999999999994 367.7499074759311,359.99999999999994 367.7499074759311,389.99999999999994" /><polygon class="hex-field hex-field-7" points="263.82685902179844,90.0 289.8076211353316,75.0 289.8076211353316,45.00000000000001 263.82685902179844,30.0 237.84609690826525,44.999999999999986 237.84609690826525,75.0" /><polygon class="hex-field hex-field-6" points="289.8076211353316,135.0 315.78838324886476,120.0 315.78838324886476,90.0 289.8076211353316,75.0 263.82685902179844,89.99999999999997 263.82685902179844,120.0" /><polygon class="hex-field hex-field-6" points="315.78838324886476,180.0 341.7691453623979,165.0 341.7691453623979,135.0 315.78838324886476,119.99999999999999 289.8076211353316,134.99999999999997 289.8076211353316,165.0" /><polygon class="hex-field hex-field-5" points="341.7691453623979,225.0 367.7499074759311,210.0 367.7499074759311,180.0 341.7691453623979,165.0 315.78838324886476,180.0 315.78838324886476,210.0" /><polygon class="hex-field hex-field-5" points="367.7499074759311,270.0 393.73066958946424,254.99999999999997 393.73066958946424,224.99999999999997 367.7499074759311,209.99999999999997 341.7691453623979,224.99999999999994 341.7691453623979,254.99999999999997" /><polygon class="hex-field hex-field-1" points="393.73066958946424,314.99999999999994 419.7114317029973,299.99999999999994 419.7114317029974,269.99999999999994 393.73066958946424,254.99999999999994 367.7499074759311,269.99999999999994 367.7499074759311,299.99999999999994" /><polygon class="hex-field hex-field-1" points="419.7114317029973,360.0 445.69219381653045,345.0 445.69219381653045,315.0 419.7114317029973,300.0 393.7306695894641,315.0 393.7306695894641,345.0" /><polygon class="hex-field hex-field-1" points="445.69219381653045,404.99999999999994 471.6729559300636,389.99999999999994 471.6729559300636,359.99999999999994 445.69219381653045,344.99999999999994 419.7114317029973,359.99999999999994 419.7114317029973,389.99999999999994" /><polygon class="hex-field hex-field-6" points="315.78838324886476,90.0 341.7691453623979,75.0 341.7691453623979,45.00000000000001 315.78838324886476,30.0 289.8076211353316,44.999999999999986 289.8076211353316,75.0" /><polygon class="hex-field hex-field-6" points="341.7691453623979,135.0 367.7499074759311,120.0 367.7499074759311,90.0 341.7691453623979,75.0 315.78838324886476,89.99999999999997 315.78838324886476,120.0" /><polygon class="hex-field hex-field-6" points="367.7499074759311,180.0 393.73066958946424,165.0 393.73066958946424,135.0 367.7499074759311,119.99999999999999 341.7691453623979,134.99999999999997 341.7691453623979,165.0" /><polygon class="hex-field hex-field-6" points="393.73066958946424,225.0 419.7114317029973,210.0 419.7114317029974,180.0 393.73066958946424,165.0 367.7499074759311,180.0 367.7499074759311,210.0" /><polygon class="hex-field hex-field-1" points="419.7114317029973,270.0 445.69219381653045,254.99999999999997 445.69219381653045,224.99999999999997 419.7114317029973,209.99999999999997 393.7306695894641,224.99999999999994 393.7306695894641,254.99999999999997" /><polygon class="hex-field hex-field-1" points="445.69219381653045,314.99999999999994 471.6729559300636,299.99999999999994 471.6729559300636,269.99999999999994 445.69219381653045,254.99999999999994 419.7114317029973,269.99999999999994 419.7114317029973,299.99999999999994" /><polygon class="hex-field hex-field-6" points="367.7499074759311,90.0 393.73066958946424,75.0 393.73066958946424,45.00000000000001 367.7499074759311,30.0 341.7691453623979,44.999999999999986 341.7691453623979,75.0" /><polygon class="hex-field hex-field-6" points="393.73066958946424,135.0 419.7114317029973,120.0 419.7114317029974,90.0 393.73066958946424,75.0 367.7499074759311,89.99999999999997 367.7499074759311,120.0" /><polygon class="hex-field hex-field-6" points="419.7114317029973,180.0 445.69219381653045,165.0 445.69219381653045,135.0 419.7114317029973,119.99999999999999 393.7306695894641,134.99999999999997 393.7306695894641,165.0" /><polygon class="hex-field hex-field-6" points="445.69219381653045,225.0 471.6729559300636,210.0 471.6729559300636,180.0 445.69219381653045,165.0 419.7114317029973,180.0 419.7114317029973,210.0" /><polygon class="hex-field hex-field-6" points="419.7114317029973,90.0 445.69219381653045,75.0 445.69219381653045,45.00000000000001 419.7114317029973,30.0 393.7306695894641,44.999999999999986 393.7306695894641,75.0" /><polygon class="hex-field hex-field-6" points="445.69219381653045,135.0 471.6729559300636,120.0 471.6729559300636,90.0 445.69219381653045,75.0 419.7114317029973,89.99999999999997 419.7114317029973,120.0" /></svg>