<?xml version="1.0" encoding="utf-8" ?>
<svg baseProfile="full" height="100%" version="1.1" width="100%" xmlns="http://www.w3.org/2000/svg" xmlns:ev="http://www.w3.org/2001/xml-events" xmlns:xlink="http://www.w3.org/1999/xlink"><defs /><style type="text/css"><![CDATA[.board { fill: white } .hex-field { fill: white; stroke: black } .hex-field-0 { fill: black }]]></style><style type="text/css"><![CDATA[.board {fill: darkgreen} .hex-field {fill: lime; stroke: green; }]]></style><rect class="board" height="344.99999999999994" width="501.6729559300637" x="0" y="0" /><polygon class="hex-field hex-field-1" points="55.98076211353319,270.0 81.96152422706633,254.99999999999997 81.96152422706633,224.99999999999997 55.98076211353319,209.99999999999997 30.000000000000043,224.99999999999994 30.00000000000003,254.99999999999997" /><polygon class="hex-field hex-field-1" points="81.96152422706633,314.99999999999994 107.9422863405995,299.99999999999994 107.9422863405995,269.99999999999994 81.96152422706633,254.99999999999994 55.980762113533174,269.99999999999994 55.980762113533174,299.99999999999994" /><polygon class="hex-field hex-field-1" points="55.98076211353316,180.0 81.9615242270663,165.0 81.96152422706633,135.0 55.98076211353316,119.99999999999999 30.000000000000014,134.99999999999997 30.0,165.0" /><polygon class="hex-field hex-field-1" points="81.96152422706633,225.0 107.9422863405995,210.0 107.9422863405995,180.0 81.96152422706633,165.0 55.980762113533174,180.0 55.980762113533174,210.0" /><polygon class="hex-field hex-field-1" points="107.9422863405995,270.0 133.92304845413264,254.99999999999997 133.92304845413264,224.99999999999997 107.9422863405995,209.99999999999997 81.96152422706633,224.99999999999994 81.96152422706633,254.99999999999997" /><polygon class="hex-field hex-field-1" points="133.92304845413264,314.99999999999994 159.9038105676658,299.99999999999994 159.9038105676658,269.99999999999994 133.92304845413264,254.99999999999994 107.9422863405995,269.99999999999994 107.9422863405995,299.99999999999994" /><polygon class="hex-field hex-field-1" points="55.98076211353316,90.0 81.9615242270663,75.0 81.96152422706633,45.00000000000001 55.98076211353316,30.0 30.000000000000014,44.999999999999986 30.0,75.0" /><polygon class="hex-field hex-field-1" points="81.9615242270663,135.0 107.94228634059947,120.0 107.94228634059947,90.0 81.9615242270663,75.0 55.980762113533146,89.99999999999997 55.980762113533146,120.0" /><polygon class="hex-field hex-field-1" points="107.94228634059947,180.0 133.92304845413264,165.0 133.92304845413264,135.0 107.94228634059947,119.99999999999999 81.9615242270663,134.99999999999997 81.9615242270663,165.0" /><polygon class="hex-field hex-field-1" points="133.92304845413264,225.0 159.9038105676658,210.0 159.9038105676658,180.0 133.92304845413264,165.0 107.9422863405995,180.0 107.9422863405995,210.0" /><polygon class="hex-field hex-field-1" points="159.9038105676658,270.0 185.88457268119896,254.99999999999997 185.88457268119896,224.99999999999997 159.9038105676658,209.99999999999997 133.92304845413264,224.99999999999994 133.92304845413264,254.99999999999997" /><polygon class="hex-field hex-field-1" points="185.88457268119896,314.99999999999994 211.86533479473206,299.99999999999994 211.86533479473212,269.99999999999994 185.88457268119896,254.99999999999994 159.9038105676658,269.99999999999994 159.9038105676658,299.99999999999994" /><polygon class="hex-field hex-field-1" points="107.94228634059947,90.0 133.92304845413264,75.0 133.92304845413264,45.00000000000001 107.94228634059947,30.0 81.9615242270663,44.999999999999986 81.9615242270663,75.0" /><polygon class="hex-field hex-field-1" points="133.92304845413264,135.0 159.9038105676658,120.0 159.9038105676658,90.0 133.92304845413264,75.0 107.94228634059947,89.99999999999997 107.94228634059947,120.0" /><polygon class="hex-field hex-field-1" points="159.9038105676658,180.0 185.88457268119896,165.0 185.88457268119896,135.0 159.9038105676658,119.99999999999999 133.92304845413264,134.99999999999997 133.92304845413264,165.0" /><polygon class="hex-field hex-field-1" points="185.88457268119896,225.0 211.86533479473206,210.0 211.86533479473212,180.0 185.88457268119896,165.0 159.9038105676658,180.0 159.9038105676658,210.0" /><polygon class="hex-field hex-field-1" points="211.86533479473206,270.0 237.84609690826522,254.99999999999997 237.84609690826522,224.99999999999997 211.86533479473206,209.99999999999997 185.8845726811989,224.99999999999994 185.8845726811989,254.99999999999997" /><polygon class="hex-field hex-field-1" points="237.84609690826522,314.99999999999994 263.8268590217984,299.99999999999994 263.8268590217984,269.99999999999994 237.84609690826522,254.99999999999994 211.86533479473206,269.99999999999994 211.86533479473206,299.99999999999994" /><polygon class="hex-field hex-field-1" points="159.9038105676658,90.0 185.88457268119896,75.0 185.88457268119896,45.00000000000001 159.9038105676658,30.0 133.92304845413264,44.999999999999986 133.92304845413264,75.0" /><polygon class="hex-field hex-field-1" points="185.88457268119896,135.0 211.86533479473206,120.0 211.86533479473212,90.0 185.88457268119896,75.0 159.9038105676658,89.99999999999997 159.9038105676658,120.0" /><polygon class="hex-field hex-field-1" points="211.86533479473206,180.0 237.84609690826522,165.0 237.84609690826522,135.0 211.86533479473206,119.99999999999999 185.8845726811989,134.99999999999997 185.8845726811989,165.0" /><polygon class="hex-field hex-field-1" points="237.84609690826522,225.0 263.8268590217984,210.0 263.8268590217984,180.0 237.84609690826522,165.0 211.86533479473206,180.0 211.86533479473206,210.0" /><polygon class="hex-field hex-field-1" points="263.8268590217984,270.0 289.80762113533154,254.99999999999997 289.80762113533154,224.99999999999997 263.8268590217984,209.99999999999997 237.84609690826522,224.99999999999994 237.84609690826522,254.99999999999997" /><polygon class="hex-field hex-field-1" points="289.80762113533154,314.99999999999994 315.7883832488647,299.99999999999994 315.7883832488647,269.99999999999994 289.80762113533154,254.99999999999994 263.8268590217984,269.99999999999994 263.8268590217984,299.99999999999994" /><polygon class="hex-field hex-field-1" points="211.86533479473206,90.0 237.84609690826522,75.0 237.84609690826522,45.00000000000001 211.86533479473206,30.0 185.8845726811989,44.999999999999986 185.8845726811989,75.0" /><polygon class="hex-field hex-field-1" points="237.84609690826522,135.0 263.8268590217984,120.0 263.8268590217984,90.0 237.84609690826522,75.0 211.86533479473206,89.99999999999997 211.86533479473206,120.0" /><polygon class="hex-field hex-field-1" points="263.8268590217984,180.0 289.80762113533154,165.0 289.80762113533154,135.0 263.8268590217984,119.99999999999999 237.84609690826522,134.99999999999997 237.84609690826522,165.0" /><polygon class="hex-field hex-field-1" points="289.80762113533154,225.0 315.7883832488647,210.0 315.7883832488647,180.0 289.80762113533154,165.0 263.8268590217984,180.0 263.8268590217984,210.0" /><polygon class="hex-field hex-field-1" points="315.7883832488647,270.0 341.76914536239786,254.99999999999997 341.76914536239786,224.99999999999997 315.7883832488647,209.99999999999997 289.80762113533154,224.99999999999994 289.80762113533154,254.99999999999997" /><polygon class="hex-field hex-field-1" points="341.76914536239786,314.99999999999994 367.749907475931,299.99999999999994 367.749907475931,269.99999999999994 341.76914536239786,254.99999999999994 315.7883832488647,269.99999999999994 315.7883832488647,299.99999999999994" /><polygon class="hex-field hex-field-1" points="263.8268590217984,90.0 289.80762113533154,75.0 289.80762113533154,45.00000000000001 263.8268590217984,30.0 237.84609690826522,44.999999999999986 237.84609690826522,75.0" /><polygon class="hex-field hex-field-1" points="289.80762113533154,135.0 315.7883832488647,120.0 315.7883832488647,90.0 289.80762113533154,75.0 263.8268590217984,89.99999999999997 263.8268590217984,120.0" /><polygon class="hex-field hex-field-1" points="315.7883832488647,180.0 341.76914536239786,165.0 341.76914536239786,135.0 315.7883832488647,119.99999999999999 289.80762113533154,134.99999999999997 289.80762113533154,165.0" /><polygon class="hex-field hex-field-1" points="341.76914536239786,225.0 367.749907475931,210.0 367.749907475931,180.0 341.76914536239786,165.0 315.7883832488647,180.0 315.7883832488647,210.0" /><polygon class="hex-field hex-field-1" points="367.749907475931,270.0 393.7306695894642,254.99999999999997 393.7306695894642,224.99999999999997 367.749907475931,209.99999999999997 341.76914536239786,224.99999999999994 341.76914536239786,254.99999999999997" /><polygon class="hex-field hex-field-1" points="393.7306695894642,314.99999999999994 419.71143170299734,299.99999999999994 419.71143170299734,269.99999999999994 393.7306695894642,254.99999999999994 367.749907475931,269.99999999999994 367.749907475931,299.99999999999994" /><polygon class="hex-field hex-field-1" points="315.7883832488647,90.0 341.76914536239786,75.0 341.76914536239786,45.00000000000001 315.7883832488647,30.0 289.80762113533154,44.999999999999986 289.80762113533154,75.0" /><polygon class="hex-field hex-field-1" points="341.76914536239786,135.0 367.749907475931,120.0 367.749907475931,90.0 341.76914536239786,75.0 315.7883832488647,89.99999999999997 315.7883832488647,120.0" /><polygon class="hex-field hex-field-1" points="367.749907475931,180.0 393.7306695894642,165.0 393.7306695894642,135.0 367.749907475931,119.99999999999999 341.76914536239786,134.99999999999997 341.76914536239786,165.0" /><polygon class="hex-field hex-field-1" points="393.7306695894642,225.0 419.71143170299734,210.0 419.71143170299734,180.0 393.7306695894642,165.0 367.749907475931,180.0 367.749907475931,210.0" /><polygon class="hex-field hex-field-1" points="419.71143170299734,270.0 445.6921938165305,254.99999999999997 445.6921938165305,224.99999999999997 419.71143170299734,209.99999999999997 393.7306695894642,224.99999999999994 393.7306695894642,254.99999999999997" /><polygon class="hex-field hex-field-1" points="445.6921938165305,314.99999999999994 471.6729559300636,299.99999999999994 471.6729559300637,269.99999999999994 445.6921938165305,254.99999999999994 419.71143170299734,269.99999999999994 419.71143170299734,299.99999999999994" /><polygon class="hex-field hex-field-1" points="367.749907475931,90.0 393.7306695894642,75.0 393.7306695894642,45.00000000000001 367.749907475931,30.0 341.76914536239786,44.999999999999986 341.76914536239786,75.0" /><polygon class="hex-field hex-field-1" points="393.7306695894642,135.0 419.71143170299734,120.0 419.71143170299734,90.0 393.7306695894642,75.0 367.749907475931,89.99999999999997 367.749907475931,120.0" /><polygon class="hex-field hex-field-1" points="419.71143170299734,180.0 445.6921938165305,165.0 445.6921938165305,135.0 419.71143170299734,119.99999999999999 393.7306695894642,134.99999999999997 393.7306695894642,165.0" /><polygon class="hex-field hex-field-1" points="445.6921938165305,225.0 471.6729559300636,210.0 471.6729559300637,180.0 445.6921938165305,165.0 419.71143170299734,180.0 419.71143170299734,210.0" /><polygon class="hex-field hex-field-1" points="419.71143170299734,90.0 445.6921938165305,75.0 445.6921938165305,45.00000000000001 419.71143170299734,30.0 393.7306695894642,44.999999999999986 393.7306695894642,75.0" /><polygon class="hex-field hex-field-1" points="445.6921938165305,135.0 471.6729559300636,120.0 471.6729559300637,90.0 445.6921938165305,75.0 419.71143170299734,89.99999999999997 419.71143170299734,120.0" /></svg>